<?xml version="1.0" encoding="UTF-8" standalone="no"?>
<!-- Created with Inkscape (http://www.inkscape.org/) -->

<svg
   version="1.1"
   id="svg2"
   width="720"
   height="693"
   viewBox="0 0 720 693"
   sodipodi:docname="logo.svg"
   inkscape:version="1.2 (1:1.2+202206011326+fc4e4096c5)"
   xmlns:inkscape="http://www.inkscape.org/namespaces/inkscape"
   xmlns:sodipodi="http://sodipodi.sourceforge.net/DTD/sodipodi-0.dtd"
   xmlns="http://www.w3.org/2000/svg"
   xmlns:svg="http://www.w3.org/2000/svg">
  <defs
     id="defs6" />
  <sodipodi:namedview
     id="namedview4"
     pagecolor="#ffffff"
     bordercolor="#000000"
     borderopacity="0.25"
     inkscape:showpageshadow="2"
     inkscape:pageopacity="0.0"
     inkscape:pagecheckerboard="0"
     inkscape:deskcolor="#d1d1d1"
     showgrid="false"
     inkscape:zoom="1.0479057"
     inkscape:cx="373.60231"
     inkscape:cy="242.86536"
     inkscape:window-width="2486"
     inkscape:window-height="1376"
     inkscape:window-x="74"
     inkscape:window-y="27"
     inkscape:window-maximized="1"
     inkscape:current-layer="g8" />
  <g
     inkscape:groupmode="layer"
     inkscape:label="Image"
     id="g8">
    <path
       style="fill:#d38d5f;stroke:#000000;stroke-opacity:1"
       d="m 51,423.24743 c 9.647976,-12.93031 44.866517,-45.59348 65.98843,-61.20048 15.22373,-11.24882 23.64702,-18.86197 34.081,-30.80309 5.64389,-6.45912 10.94814,-12.30636 11.78722,-12.99386 0.83909,-0.6875 1.21729,-1.25 0.84046,-1.25 -0.37683,0 3.04223,-5.0625 7.59792,-11.25 56.20803,-76.34138 128.10001,-211.506804 147.06521,-276.5 1.83368,-6.283971 2.89678,-6.026274 -13.18825,-3.196838 -22.89131,4.026696 -46.15445,10.756743 -67.17199,19.43291 -11.19813,4.622656 -25,11.185823 -25,11.888184 0,0.192012 1.32032,3.261026 2.93405,6.82003 1.61373,3.559004 4.19314,10.708746 5.73203,15.888315 2.60857,8.779918 2.79878,10.635852 2.80999,27.417399 0.0111,16.60335 -0.20153,18.76587 -2.74035,27.87042 -5.27462,18.91554 -14.31709,34.81498 -27.25386,47.92068 -14.95599,15.15127 -30.86893,25.07395 -65.99637,41.1527 -46.115086,21.10808 -64.626196,34.27449 -79.98549,56.8913 -3.3,4.8593 -6.537064,9.5843 -7.193475,10.5 -4.002387,5.58334 -6.32114,64.32954 -3.499666,88.6649 2.207829,19.04264 7.678544,47.54519 9.111109,47.46908 0.320118,-0.017 2.157032,-2.14175 4.082032,-4.72165 z"
       id="path1946" />
    <path
       style="fill:#d38d5f;stroke:#000000;stroke-opacity:1"
       d="m 621.15381,542.73271 c 8.17753,-10.9329 19.26138,-27.71538 22.56148,-34.1612 l 2.01129,-3.92849 -4.94446,-7.57151 C 624.42723,472.0271 615.26474,437.34343 618.83686,414 l 0.68861,-4.5 -3.90834,-1.5 c -8.06861,-3.0967 -6.66485,-8.47732 2.0391,-7.81585 l 4.15623,0.31585 2.41526,-6.1466 2.41526,-6.14661 -4.57149,0.14661 c -3.98581,0.12782 -4.61114,-0.13179 -4.88095,-2.0264 -0.40607,-2.85138 7.63358,-7.83894 11.19505,-6.94507 2.03973,0.51194 2.92022,-0.28541 6.60232,-5.97897 5.97714,-9.24233 15.07482,-20.56391 23.9367,-29.78792 L 666.5,335.73008 644,336.61504 c -60.79937,2.39134 -102.28791,-1.12656 -138.31513,-11.72803 -19.90804,-5.8582 -35.9769,-15.66062 -40.17523,-24.50793 -2.23471,-4.70931 -1.66795,-12.34726 1.36496,-18.39481 11.1322,-22.19736 58.52414,-46.05912 101.36925,-51.03923 12.55532,-1.45938 56.09748,-1.22852 78.75615,0.41755 10.175,0.73918 18.67388,1.19861 18.8864,1.02095 0.63263,-0.52884 -7.72286,-20.06302 -13.60233,-31.80073 C 645.80707,187.65222 634.15681,168 632.96827,168 c -0.46064,0 -3.9119,0.64672 -7.66948,1.43715 -10.7292,2.25695 -21.14185,2.85883 -29.37937,1.69819 -4.16931,-0.58745 -8.25671,-1.32754 -9.08311,-1.64466 -1.18628,-0.45522 -1.40825,0.0658 -1.05458,2.47553 0.56362,3.84019 -1.20651,6.03379 -4.86899,6.03379 -4.6574,0 -6.57688,-5.5947 -2.97699,-8.67702 1.87005,-1.60118 1.76744,-1.73542 -3.02321,-3.95496 l -4.95896,-2.29752 -7.72679,8.0905 c -9.27914,9.71591 -16.94917,15.34521 -29.20728,21.43623 -23.58307,11.71836 -48.53285,12.57541 -66.67053,2.2902 -12.18608,-6.91027 -23.4736,-23.80825 -26.78287,-40.09527 -3.04593,-14.991 -1.39839,-36.86054 3.90177,-51.79216 3.19443,-8.999342 10.17726,-21.382989 16.53212,-29.318761 7.56725,-9.449773 15.47423,-16.106248 25.20764,-21.22101 3.81666,-2.005598 6.7938,-3.787777 6.61587,-3.960398 C 490.7713,47.479014 472.64037,40.576061 462,37.14518 444.72904,31.576334 421.6781,26.000797 415.9232,26.000171 c -1.18728,-1.29e-4 -2.1311,2.531946 -3.82059,10.249829 -3.08855,14.109029 -8.15601,38.717149 -8.59742,41.75 -0.53044,3.644564 -2.15829,13.213007 -3.99797,23.5 -0.88523,4.95 -2.72977,15.525 -4.09896,23.5 -5.15091,30.00192 -14.62077,82.1116 -17.90034,98.5 -6.82828,34.12172 -6.71741,54.20336 0.43556,78.89264 4.27006,14.73857 17.67876,37.40487 27.44182,46.38811 2.26308,2.08232 11.9897,8.22094 21.6147,13.64137 33.21081,18.70304 58.48762,34.59851 72.8552,45.81541 l 6.35521,4.96156 6.64479,-3.0594 c 13.67504,-6.29628 25.50867,-6.6966 36.59658,-1.23804 15.99949,7.87652 22.68533,22.98657 19.65454,44.41941 -0.60828,4.30159 -2.15447,10.94731 -3.43597,14.76827 l -2.33002,6.94721 7.02933,9.73173 c 10.26071,14.20542 24.26281,36.28719 33.79148,53.29027 4.58637,8.18399 8.56386,14.88603 8.83886,14.89343 0.275,0.007 3.94421,-4.59127 8.15381,-10.21926 z"
       id="path1838" />
    <path
       style="fill:#d38d5f;stroke:#000000;stroke-opacity:1"
       d="m 336.14534,657.71728 c 5.99273,-11.01747 6.49877,-12.38287 5.15284,-13.90339 -1.88636,-2.13105 -2.10453,-8.13738 -0.37142,-10.22564 1.8633,-2.24514 4.69261,-1.96977 6.51654,0.63426 l 1.5567,2.2225 1.71755,-2.45214 c 0.94465,-1.34868 3.95426,-4.93631 6.68801,-7.97251 32.97037,-36.61799 78.76515,-30.41722 99.55173,13.47964 2.08354,4.4 4.34566,9.73372 5.02693,11.85271 1.12819,3.50904 1.49115,3.80222 4.06899,3.28665 6.98442,-1.39689 44.38046,-17.69287 47.32602,-20.62315 1.06004,-1.05454 -4.8794,-12.11865 -15.17388,-28.26621 C 491.4983,595.22955 489,592.26891 489,594.84107 c 0,1.28977 -9.85849,6.36442 -10.99708,5.66074 -2.0219,-1.24961 -0.87068,-4.08167 2.94785,-7.25181 2.15309,-1.7875 4.39498,-3.25 4.98197,-3.25 0.58699,0 1.06726,-0.27176 1.06726,-0.60391 0,-2.33929 -31.75199,-45.62561 -48.30395,-65.85099 -10.3077,-12.59533 -29.70481,-34.32066 -36.57341,-40.96331 l -4.05149,-3.91821 0.59239,3.65049 c 0.47604,2.9335 0.23858,3.78626 -1.20901,4.34175 -1.30988,0.50265 -2.57264,-0.23256 -4.62797,-2.6945 -3.19652,-3.82892 -3.64855,-7.40193 -1.11577,-8.81935 1.47757,-0.82689 0.9791,-1.61753 -3.65653,-5.79969 -21.15233,-19.08314 -43.38679,-32.63128 -60.25978,-36.71812 -12.28078,-2.97456 -35.15262,-1.5305 -53.0947,3.35224 -10.59176,2.88244 -12.53361,3.5156 -19.87384,6.48006 -6.58626,2.65996 -6.64875,2.72073 -4.75,4.61948 2.63621,2.63621 2.41232,5.55803 -0.57594,7.51602 -2.3226,1.52182 -2.68448,1.51719 -5.09968,-0.0653 -1.92993,-1.26453 -2.48092,-2.32469 -2.13868,-4.11501 0.25356,-1.3264 0.24161,-2.41163 -0.0265,-2.41163 -1.32803,0 -20.70787,11.06049 -27.7351,15.82901 -29.517,20.0296 -57.80496,49.04582 -80.10863,82.17099 -9.84214,14.61743 -12.57817,19.78244 -11.52332,21.75344 2.08432,3.89459 26.75186,26.35114 41.13195,37.44523 19.65244,15.16165 49.29656,32.34159 71.59635,41.49292 27.04658,11.0993 51.28809,17.68241 83.40365,22.6494 1.375,0.21265 4.3,0.4332 6.5,0.49011 l 4,0.10346 6.64534,-12.21728 z"
       id="path1676" />
    <path
       style="fill:#aaeeff;stroke:#000000;stroke-opacity:1;fill-opacity:0.41176471"
       d="m 653.191,491.23983 c 0.93005,-2.05691 3.33886,-7.33983 5.35292,-11.73983 2.01405,-4.4 4.47603,-10.05375 5.47105,-12.5639 l 1.80914,-4.5639 -3.07499,0.45131 c -4.92204,0.72241 -7.68822,-4.74155 -4.17769,-8.25208 2.16994,-2.16995 4.98362,-1.9654 7.30973,0.53138 l 1.95907,2.10282 3.15804,-9.85282 C 680.76074,416.8948 685.52292,388.76794 686.67692,354.75 L 687.31297,336 h -3.11427 c -2.48845,0 -4.68012,1.46516 -10.90648,7.29111 -28.93312,27.07245 -43.43728,52.04251 -45.86146,78.95411 -1.20998,13.43245 5.62357,40.83071 14.47805,58.04791 2.76471,5.37588 8.52674,14.70749 9.07482,14.6967 0.284,-0.006 1.27732,-1.69309 2.20737,-3.75 z"
       id="path1928" />
    <path
       style="fill:#aaeeff;stroke:#000000;stroke-opacity:1;fill-opacity:0.41130793"
       d="m 544,615.90626 c 20.28023,-13.71837 43.60295,-33.67354 56.42421,-48.27716 l 5.64547,-6.43027 -5.63715,-10.34942 C 588.83098,529.54978 571.27423,501.7717 558.34541,484.25967 555.40543,480.27748 553,476.37729 553,475.59257 c 0,-0.78472 0.83496,-3.37657 1.85548,-5.75966 3.21634,-7.51081 5.21974,-17.47156 5.29314,-26.31719 0.0607,-7.312 -0.31347,-9.33237 -2.58993,-13.9853 -4.52047,-9.23949 -12.72704,-14.41137 -23.24477,-14.64912 -7.32732,-0.16564 -15.30509,2.07954 -21.59865,6.07847 -2.6316,1.67213 -5.46737,3.04023 -6.30172,3.04023 -0.83434,0 -7.10076,-4.1625 -13.92536,-9.25 C 477.3723,403.48164 456.99838,390.46001 435,378.00745 400.58999,358.52908 400.34947,358.37036 394.50377,351.28334 379.55429,333.15939 370.13855,314.2538 365.47632,293 c -2.21621,-10.1031 -3.0406,-34.82491 -1.54597,-46.36066 0.65127,-5.02664 2.4904,-15.66434 4.08695,-23.63934 2.85338,-14.25306 14.73723,-79.62701 15.54241,-85.5 0.22622,-1.65 2.24048,-13.125 4.47616,-25.5 4.64368,-25.703986 5.95012,-33.204337 5.95834,-34.207159 0.003,-0.388937 -2.13171,1.588855 -4.74421,4.395094 -3.22537,3.464562 -7.15731,6.247684 -12.25,8.670858 -6.73913,3.206573 -8.36232,3.572287 -16,3.604906 -12.52755,0.0535 -19.18997,-2.733073 -28.42843,-11.890266 C 324.83266,74.902602 321,67.41605 321,59.970033 c 0,-5.163564 -1.34667,-5.702686 -2.91454,-1.166793 -0.70279,2.033218 -2.061,5.49676 -3.01824,7.69676 -0.95723,2.2 -3.2456,7.6 -5.08526,12 -17.13923,40.9927 -57.705,119.60839 -80.13612,155.3023 -3.21521,5.11626 -5.84584,9.48048 -5.84584,9.69826 0,1.8376 -30.1528,47.60378 -42.82453,64.99944 -20.34308,27.92683 -34.19439,42.67665 -54.67547,58.2222 -29.669403,22.51968 -58.13387,49.15663 -72.687171,68.02041 l -4.162186,5.39497 2.296044,7.18121 c 6.200557,19.39314 19.117854,47.86521 29.636947,65.32522 10.366173,17.20618 30.085316,44.13846 32.995586,45.06516 0.59358,0.189 3.49121,-3.60574 6.43918,-8.43276 40.51776,-66.34395 104.22511,-114.85054 164.4816,-125.2358 28.85083,-4.97247 43.71868,-3.33111 65,7.17577 31.07419,15.34176 72.06996,54.58539 111.55129,106.78362 17.65799,23.34563 41.96031,58.97073 54.42214,79.77819 l 6.75464,11.27819 4.63597,-2.68552 c 2.54978,-1.47704 9.81096,-6.18611 16.13596,-10.4646 z"
       id="path1746" />
    <path
       style="fill:none;stroke:#000000;stroke-opacity:1"
       d="m 348,680.89711 c -20.24009,-0.69728 -32.53808,-2.04692 -49.90564,-5.47688 C 247.38517,665.40554 202.1987,645.45873 161.5,615.12294 c -17.42184,-12.98581 -35.90458,-29.65931 -34.82105,-31.41249 0.34654,-0.56071 0.14623,-0.72044 -0.44512,-0.35497 -0.59951,0.37052 -5.30005,-3.87464 -10.62482,-9.59549 C 80.599349,536.14612 53.519789,488.3452 40.116275,440.5 c -1.078552,-3.85 -2.667521,-9.475 -3.531042,-12.5 -0.863521,-3.025 -2.447437,-10 -3.519813,-15.5 -1.858275,-9.53072 -2.716927,-15.39445 -5.038657,-34.409 -1.53513,-12.57244 -1.261881,-50.73675 0.477886,-66.74562 6.084767,-55.99041 26.44219,-110.81087 57.371236,-154.49488 9.811779,-13.8581 11.020374,-15.35662 12.158977,-15.07572 0.612589,0.15112 0.827111,-0.1891 0.476716,-0.75605 C 96.927882,138.45626 129.57129,103.87284 147.61224,89 c 45.9974,-37.919955 98.76571,-62.289159 156.98315,-72.497204 34.54793,-6.05775 77.95906,-6.042603 114.13126,0.03982 12.36496,2.079193 37.64107,8.471301 49.59883,12.543113 54.15712,18.441387 102.60157,50.146952 140.86276,92.190831 5.13801,5.64599 8.60244,10.25312 8.19985,10.90451 -0.41188,0.66644 -0.25018,0.85173 0.3952,0.45287 0.60077,-0.3713 1.90779,0.48569 2.90451,1.90442 0.99671,1.41873 3.75531,4.91549 6.13022,7.77057 13.97889,16.80523 31.22799,46.07826 42.01109,71.29601 9.48034,22.17104 15.71519,41.77903 20.79402,65.39506 7.61163,35.39335 8.55829,83.69222 2.40098,122.5 -8.57889,54.07041 -33.63631,110.20648 -68.72767,153.97042 C 567.25323,625.3643 486.11646,670.00009 398,679.4128 c -18.25675,1.95021 -28.04324,2.24074 -50,1.48431 z"
       id="path1574" />
    <path
       style="fill:#aaeeff;stroke:#000000;stroke-opacity:1;fill-opacity:0.41176471"
       d="M 335.1874,22.229134 C 333.49189,21.663963 329,23.961182 329,25.393462 c 0,0.79363 -0.29132,2.267267 -0.64738,3.274751 -0.37969,1.074344 1.08242,0.182742 3.53593,-2.156239 2.30081,-2.193414 3.7853,-4.120692 3.29885,-4.28284 z"
       id="path2010" />
    <path
       style="fill:#aaeeff;stroke:#000000;stroke-opacity:1;fill-opacity:0.41176471"
       d="m 402.41285,36.5 c 0.91652,-4.4 1.87227,-8.973165 2.12389,-10.16259 0.50625,-2.393115 -0.33536,-2.630625 -13.97054,-3.942601 l -6.9338,-0.667169 4.9338,4.942908 c 5.28602,5.295779 10.41457,14.286147 10.46421,18.343805 0.0502,4.104134 1.52981,0.37964 3.38244,-8.514353 z"
       id="path2008" />
    <path
       style="fill:#bcd35f;stroke:#000000;stroke-opacity:1"
       d="M 376.24619,87.816954 C 392.08243,80.517559 399.75357,64.09876 395.87758,45.799221 393.74549,35.733075 386.4265,26.889854 375.5,21.177865 c -4.40247,-2.301457 -6.19505,-2.617649 -15,-2.645844 -9.39681,-0.03009 -10.38057,0.16669 -16.3093,3.262309 -15.11494,7.892095 -22.43108,22.565597 -19.77583,39.663094 1.15698,7.450003 4.39878,13.462924 10.37506,19.243781 11.97217,11.580693 26.39759,14.05674 41.45626,7.115749 z"
       id="path2006" />
    <path
       style="fill:none;stroke:#000000;stroke-opacity:1"
       d="m 128.39699,112.16667 c 0.28327,-0.45834 -0.12038,-0.83334 -0.89699,-0.83334 -0.77661,0 -1.18026,0.375 -0.89699,0.83334 C 126.88627,112.625 127.28992,113 127.5,113 c 0.21008,0 0.61373,-0.375 0.89699,-0.83333 z"
       id="path2004" />
    <path
       style="fill:none;stroke:#000000;stroke-opacity:1"
       d="m 583,173.55902 c 0,-0.79254 -0.48921,-1.74333 -1.08713,-2.11287 -1.41202,-0.87268 -3.3394,1.0547 -2.46672,2.46672 0.98021,1.58602 3.55385,1.32977 3.55385,-0.35385 z"
       id="path2002" />
    <path
       style="fill:#932265;stroke:#000000;stroke-opacity:1;fill-opacity:1"
       d="m 514.98296,189.36622 c 18.97002,-5.75303 37.24498,-18.17365 46.12898,-31.35166 4.47719,-6.64122 6.68348,-7.13843 13.94985,-3.14372 C 583.00982,159.24029 594.48953,162 604.71733,162 613.86975,162 627,160.18109 627,158.91322 c 0,-0.43652 -2.32132,-3.85807 -5.15849,-7.60345 C 593.55533,113.9689 555.56576,81.305386 515.56337,59.931574 504.44358,53.990121 504.10222,53.994005 491,60.211087 c -7.21079,3.421565 -9.94088,5.493569 -18,13.661108 -10.87211,11.018378 -16.26032,19.702211 -20.94386,33.753915 -11.96719,35.90432 -0.68756,72.63169 25.18288,81.99744 11.0115,3.98644 24.04352,3.89759 37.74394,-0.25733 z"
       id="path2000" />
    <path
       style="fill:none;stroke:#000000;stroke-opacity:1"
       d="m 178.10212,145.74193 c 1.86883,-1.24194 4.41038,-4.26229 5.64788,-6.71189 5.48051,-10.84853 0.24605,-23.46327 -10.75637,-25.92219 -12.20046,-2.72667 -21.49975,5.11606 -21.28689,17.95268 0.10731,6.47087 2.37962,10.89623 7.42586,14.46196 4.71982,3.33507 14.11761,3.44378 18.96952,0.21944 z"
       id="path1998" />
    <path
       style="fill:none;stroke:#000000;stroke-opacity:1"
       d="m 159.5,149.3348 c -1.65,-0.87181 -3.83538,-2.3163 -4.85641,-3.20996 -2.21567,-1.93928 -5.79658,-8.68728 -5.52241,-10.40662 0.10684,-0.67002 -0.13932,-1.97826 -0.54703,-2.90719 -1.46097,-3.3287 1.40088,-12.77763 5.11527,-16.88902 7.66199,-8.48091 21.45076,-8.90159 29.22419,-0.89159 10.2369,10.54842 6.76663,29.99598 -6.22871,34.90596 -4.14057,1.56442 -13.72022,1.22907 -17.1849,-0.60158 z"
       id="path1996" />
    <path
       style="fill:none;stroke:#000000;stroke-opacity:1"
       d="m 126.50607,162.74844 c 3.11791,-2.68191 4.23897,-8.96344 2.27521,-12.74844 -0.71339,-1.375 -2.94637,-3.30801 -4.9622,-4.29558 -3.29556,-1.61453 -4.01263,-1.65039 -7.11141,-0.35564 -7.00165,2.92548 -8.96286,10.81763 -4.11878,16.57449 2.16117,2.56841 3.30846,3.07673 6.94424,3.07673 3.07583,0 5.12434,-0.66146 6.97294,-2.25156 z"
       id="path1994" />
    <path
       style="fill:none;stroke:#000000;stroke-opacity:1"
       d="m 115.03463,167.69356 c -11.19574,-3.85608 -10.62745,-21.91463 0.80425,-25.55691 3.7538,-1.196 4.81417,-1.15896 8.63895,0.30173 5.11734,1.95433 7.62806,5.32142 8.27983,11.10398 0.67968,6.03005 -1.904,10.86598 -7.16635,13.41344 -4.80605,2.32657 -5.75183,2.39266 -10.55668,0.73776 z"
       id="path1992" />
    <path
       style="fill:none;stroke:#000000;stroke-opacity:1"
       d="m 148.85497,184.575 c 8.89282,-4.59866 5.33665,-19.48565 -4.67071,-19.55276 -4.3534,-0.0292 -6.82584,1.38398 -8.67391,4.95774 -5.06275,9.79028 3.82934,19.51556 13.34462,14.59502 z"
       id="path1990" />
    <path
       style="fill:none;stroke:#000000;stroke-opacity:1"
       d="M 138.03002,187.72069 C 133.9602,185.66134 131,180.31279 131,175.01873 c 0,-3.84878 0.58065,-5.35723 3.25151,-8.44695 8.01679,-9.27406 22.7334,-3.43113 22.74475,9.03034 0.007,7.46223 -5.73496,13.3684 -12.99626,13.3684 -1.925,0 -4.61149,-0.56243 -5.96998,-1.24983 z"
       id="path1988" />
    <path
       style="fill:none;stroke:#000000;stroke-opacity:1"
       d="m 102.79402,204.33023 c 0.40835,-2.69519 -3.11123,-5.68171 -5.720032,-4.85371 -3.243709,1.02951 -3.864896,5.46462 -1.081106,7.7188 2.011354,1.6287 2.55423,1.68627 4.400758,0.46668 1.1585,-0.76516 2.23867,-2.26446 2.40038,-3.33177 z"
       id="path1986" />
    <path
       style="fill:none;stroke:#000000;stroke-opacity:1"
       d="m 95.32949,210.49649 c -5.160487,-2.16982 -6.087797,-8.96824 -1.694631,-12.42391 3.495256,-2.74937 6.910901,-2.61773 9.910591,0.38197 6.01267,6.01266 -0.35586,15.34687 -8.21596,12.04194 z"
       id="path1984" />
    <path
       style="fill:#932265;stroke:#000000;stroke-opacity:1;fill-opacity:1"
       d="m 76,241.09605 c 9.117591,-5.97976 16.542444,-9.7956 62,-31.86356 11.275,-5.4736 24.775,-12.82757 30,-16.34217 11.11476,-7.47634 24.89523,-20.72345 30.96699,-29.76843 16.47663,-24.54493 21.22408,-56.61324 12.41144,-83.837336 -1.89137,-5.842829 -5.84997,-15.57559 -6.95844,-17.10829 C 203.65782,61.122402 183.29582,73.886542 169,84.379662 155.77684,94.085456 147.46276,101.27405 133.17594,115.35421 96.338909,151.65837 69.317795,195.00543 52.982437,244 44.205812,270.32369 44.04457,269.64162 56.190727,257.57141 62.400756,251.40022 70.277455,244.84917 76,241.09605 Z"
       id="path1982" />
    <path
       style="fill:#932265;stroke:#000000;stroke-opacity:1;fill-opacity:1"
       d="m 663.25,326.35721 22.75,-0.65736 -0.009,-3.09993 c -0.0187,-6.68797 -3.02044,-28.09727 -5.93243,-42.31247 -3.10294,-15.14741 -8.57414,-35.07675 -10.05982,-36.64388 -1.87787,-1.98082 -34.25399,-3.97052 -65.99906,-4.05603 -35.08441,-0.0945 -40.90469,0.48126 -60.5,5.98483 -37.69927,10.58829 -69.7,32.14817 -69.7,46.95903 0,4.76685 2.28667,7.90919 8.77649,12.06068 18.34485,11.73506 47.16629,18.55459 96.42351,22.81505 5.33305,0.46128 52.13588,-0.12198 84.25,-1.04992 z"
       id="path1980" />
    <path
       style="fill:none;stroke:#000000;stroke-opacity:1"
       d="m 627.85676,384.10969 c 2.1385,-1.35502 -0.47131,-2.38634 -2.83609,-1.12075 -1.11137,0.59478 -2.02067,1.29059 -2.02067,1.54624 0,0.78478 3.41951,0.4852 4.85676,-0.42549 z"
       id="path1978" />
    <path
       style="fill:none;stroke:#000000;stroke-opacity:1"
       d="m 620,404 c 0,-0.55 -1.37656,-1 -3.05902,-1 -1.7847,0 -2.80156,0.41658 -2.44098,1 0.33992,0.55 1.71648,1 3.05902,1 1.34254,0 2.44098,-0.45 2.44098,-1 z"
       id="path1976" />
    <path
       style="fill:#550000;stroke:#000000;stroke-opacity:1;fill-opacity:0.98380488"
       d="M 291.79826,52.412495 C 292.21615,49.487637 289.5055,47.335582 287.5,49 c -1.57486,1.307019 -1.99628,4.170385 -0.79115,5.375516 1.41135,1.411354 4.79368,0.106765 5.08941,-1.963021 z"
       id="path1974" />
    <path
       style="fill:none;stroke:#000000;stroke-opacity:1"
       d="M 284.65499,56.171259 C 283.74474,55.165452 283,53.218893 283,51.845573 283,49.134369 286.70832,45 289.14014,45 291.45844,45 295,49.327013 295,52.159464 c 0,5.134019 -6.9058,7.812087 -10.34501,4.011795 z"
       id="path1972" />
    <path
       style="fill:#550000;stroke:#000000;stroke-opacity:1;fill-opacity:0.98380488"
       d="M 255.6,79.6 C 258.50125,76.698754 259,75.511176 259,71.504292 259,63.245306 254.91529,59 246.96872,59 c -2.93724,0 -4.76658,0.741081 -7.20294,2.917971 C 236.74687,64.615363 236.5,65.301903 236.5,71 c 0,5.698097 0.24687,6.384637 3.26578,9.082029 2.60177,2.324682 4.19785,2.917971 7.85,2.917971 3.88009,0 5.10645,-0.522232 7.98422,-3.4 z"
       id="path1970" />
    <path
       style="fill:none;stroke:#000000;stroke-opacity:1"
       d="m 239.5,84.012488 c -8.92547,-5.873949 -8.59708,-21.808203 0.54688,-26.536732 4.08291,-2.111354 11.789,-1.87322 15.65457,0.48376 8.88306,5.416315 8.88306,20.664653 0,26.080968 -4.30731,2.626322 -12.18891,2.612703 -16.20145,-0.028 z"
       id="path1968" />
    <path
       style="fill:#550000;stroke:#000000;stroke-opacity:1;fill-opacity:0.98380488"
       d="m 256.4657,135.57878 c 9.20769,-3.84722 8.50561,-19.45297 -1.01653,-22.59556 -8.02004,-2.64685 -15.43704,2.78738 -15.44543,11.31644 -0.005,5.15656 2.47201,9.567 6.31097,11.23668 4.09298,1.78016 5.97323,1.78802 10.15099,0.0424 z"
       id="path1966" />
    <path
       style="fill:none;stroke:#000000;stroke-opacity:1"
       d="M 245.01993,138.24845 C 243.1059,137.2868 240.47897,134.925 239.18233,133 c -2.0093,-2.98301 -2.29947,-4.44206 -1.96441,-9.87773 0.3591,-5.82567 0.70594,-6.66439 4.00697,-9.68955 6.35448,-5.82345 15.38102,-5.58482 21.27035,0.56231 2.44618,2.55327 2.97361,4.037 3.29608,9.27232 0.32504,5.27723 0.0225,6.76918 -1.97365,9.73265 -2.70374,4.01398 -7.95501,6.99689 -12.31767,6.99689 -1.65,0 -4.56603,-0.7868 -6.48007,-1.74844 z"
       id="path1964" />
    <path
       style="fill:#550000;stroke:#000000;stroke-opacity:1;fill-opacity:0.98380488"
       d="m 221.80178,190.81747 c 0.17721,-0.93503 -0.6483,-2.20014 -1.85811,-2.84762 -1.74507,-0.93393 -2.4786,-0.8635 -3.69708,0.35499 -0.8392,0.8392 -1.23741,2.25669 -0.88902,3.16459 0.83792,2.18358 6.00513,1.64478 6.44421,-0.67196 z"
       id="path1962" />
    <path
       style="fill:none;stroke:#000000;stroke-opacity:1"
       d="m 213.65499,194.17126 c -4.18203,-4.62109 0.0183,-11.06084 6.31269,-9.67836 4.90823,1.07803 6.72502,6.66526 3.20358,9.85211 -2.42729,2.19667 -7.45414,2.10488 -9.51627,-0.17375 z"
       id="path1960" />
    <path
       style="fill:#550000;stroke:#000000;stroke-opacity:1;fill-opacity:0.98380488"
       d="M 177.07692,259.07692 C 179.55147,256.60237 180,255.36302 180,251 c 0,-4.36302 -0.44853,-5.60237 -2.92308,-8.07692 C 174.90736,240.75352 173.20711,240 170.48122,240 c -9.19856,0 -14.28891,8.66985 -9.98124,16.99996 1.96966,3.80889 4.07889,4.93275 9.32694,4.96963 3.47214,0.0244 4.90438,-0.54705 7.25,-2.89267 z"
       id="path1958" />
    <path
       style="fill:none;stroke:#000000;stroke-opacity:1"
       d="m 161.61488,262.9117 c -8.12785,-6.39336 -7.29504,-19.92301 1.5065,-24.47447 4.48502,-2.31929 12.10146,-1.50124 15.54013,1.66911 2.91236,2.6851 5.33849,7.70499 5.33849,11.04582 0,3.73814 -4.03211,10.81308 -7.05275,12.37512 -4.29359,2.2203 -12.12696,1.9058 -15.33237,-0.61558 z"
       id="path1956" />
    <path
       style="fill:#550000;stroke:#000000;stroke-opacity:1;fill-opacity:0.98380488"
       d="m 136.10212,282.73007 c 9.7128,-6.48858 9.0741,-23.53855 -1.07574,-28.71661 -6.72811,-3.43243 -14.97143,-2.12895 -19.65321,3.10766 -6.5334,7.30767 -5.05789,20.68323 2.83951,25.7402 4.67915,2.99622 13.3026,2.93295 17.88944,-0.13125 z"
       id="path1954" />
    <path
       style="fill:none;stroke:#000000;stroke-opacity:1"
       d="m 116.28275,285.08986 c -9.2836,-6.725 -10.91435,-19.97398 -3.66185,-29.75058 5.20518,-7.01676 19.02783,-8.40143 26.16916,-2.62148 5.05268,4.08948 7.20994,8.71266 7.20994,15.4515 0,6.80821 -1.20531,10.3563 -4.81362,14.16998 C 137.07452,286.68517 133.70965,288 126.6997,288 c -5.47981,0 -6.97703,-0.41827 -10.41695,-2.91014 z"
       id="path1952" />
    <path
       style="fill:#550000;stroke:#000000;stroke-opacity:1;fill-opacity:0.98380488"
       d="m 141.77491,332.00829 c 8.84374,-6.53845 7.76622,-23.57438 -1.80409,-28.52338 -4.10707,-2.12385 -12.77155,-1.90384 -16.58431,0.42111 C 119.85167,306.0615 116,313.18775 116,317.57233 c 0,7.28584 3.5708,13.32666 9.5,16.07144 4.40148,2.03756 12.39309,1.23448 16.27491,-1.63548 z"
       id="path1950" />
    <path
       style="fill:none;stroke:#000000;stroke-opacity:1"
       d="m 122.74755,335.9856 c -13.22473,-7.17508 -12.63401,-29.95683 0.92364,-35.62157 4.86757,-2.03381 14.19015,-1.74599 17.96298,0.55457 5.66123,3.45205 8.53675,8.34154 9.11069,15.49169 0.62576,7.79561 -1.95768,14.12478 -7.48687,18.3421 -4.81483,3.67245 -14.89723,4.27866 -20.51044,1.23321 z"
       id="path1948" />
    <path
       style="fill:none;stroke:#000000;stroke-opacity:1"
       d="M 248.82332,450.66713 C 249.01039,449.70256 248.50849,449 247.63234,449 c -1.85773,0 -2.97896,1.63015 -2.09972,3.05279 0.90454,1.46356 2.90118,0.62281 3.2907,-1.38566 z"
       id="path1944" />
    <path
       style="fill:#bcd35f;stroke:#000000;stroke-opacity:1"
       d="m 663.55385,458.91287 c 1.03052,-1.66742 -1.28721,-3.57951 -2.66672,-2.2 C 659.73321,457.86679 660.45541,460 662,460 c 0.48508,0 1.18431,-0.48921 1.55385,-1.08713 z"
       id="path1942" />
    <path
       style="fill:#bcd35f;stroke:#000000;stroke-opacity:1"
       d="m 678.81144,377.96104 c 2.7609,-2.57216 2.85038,-7.29922 0.18856,-9.96104 -5.90911,-5.90911 -15.16507,2.70655 -9.98394,9.29328 2.59041,3.29318 6.67821,3.57185 9.79538,0.66776 z"
       id="path1940" />
    <path
       style="fill:none;stroke:#000000;stroke-opacity:1"
       d="M 668.36704,381.22776 C 662.98264,376.86623 662.6123,371.1877 667.4,366.4 c 7.1044,-7.1044 16.6,-2.97212 16.6,7.22398 0,7.46771 -9.87273,12.26975 -15.63296,7.60378 z"
       id="path1938" />
    <path
       style="fill:#bcd35f;stroke:#000000;stroke-opacity:1"
       d="m 676.26936,405.75 c 0.70928,-2.03336 -0.35152,-3.75 -2.31733,-3.75 -2.20467,0 -3.3351,1.55934 -2.57203,3.54789 0.6821,1.77751 4.28784,1.92656 4.88936,0.20211 z"
       id="path1936" />
    <path
       style="fill:none;stroke:#000000;stroke-opacity:1"
       d="m 671,409.71245 c -4.65274,-2.34137 -3.52479,-9.61244 1.73335,-11.17358 1.62897,-0.48364 2.9144,0.018 4.75,1.85357 3.15753,3.15754 3.1719,5.04322 0.0621,8.15301 -2.81436,2.81437 -3.15215,2.8746 -6.54545,1.167 z"
       id="path1934" />
    <path
       style="fill:#bcd35f;stroke:#000000;stroke-opacity:1"
       d="m 655,424 c 0,-1.1 -0.64844,-2 -1.44098,-2 -1.76659,0 -2.89606,1.64564 -2.05902,3 1.08749,1.7596 3.5,1.07031 3.5,-1 z"
       id="path1932" />
    <path
       style="fill:none;stroke:#000000;stroke-opacity:1"
       d="m 648.81805,426.5 c -1.74488,-3.82959 0.27994,-7.5 4.13746,-7.5 2.09479,0 3.49203,0.7534 4.63645,2.5 1.51741,2.31587 1.51741,2.68413 0,5 -1.14442,1.7466 -2.54166,2.5 -4.63645,2.5 -2.22786,0 -3.29111,-0.64245 -4.13746,-2.5 z"
       id="path1930" />
    <path
       style="fill:#550000;stroke:#000000;stroke-opacity:1;fill-opacity:0.98380488"
       d="M 441.77749,70.443296 C 446.60277,67.063544 443.45039,58.75 437.34356,58.75 c -5.57543,0 -8.29943,7.349916 -4.155,11.211045 2.61555,2.436756 5.56227,2.602208 8.58893,0.482251 z"
       id="path1926" />
    <path
       style="fill:none;stroke:#000000;stroke-opacity:1"
       d="m 433.357,74.008419 c -5.0788,-2.049549 -7.14965,-10.610499 -3.607,-14.911423 4.05637,-4.9246 12.91966,-4.277796 16.3269,1.191466 4.98282,7.998376 -3.69736,17.361004 -12.7199,13.719957 z"
       id="path1924" />
    <path
       style="fill:#550000;stroke:#000000;stroke-opacity:1;fill-opacity:0.98380488"
       d="m 424,118.5 c 0.99319,-1.19672 0.99319,-1.80328 0,-3 -2.49896,-3.01106 -6.06097,-0.70723 -4.63837,3 0.31658,0.825 1.20962,1.5 1.98454,1.5 0.77492,0 1.96914,-0.675 2.65383,-1.5 z"
       id="path1922" />
    <path
       style="fill:none;stroke:#000000;stroke-opacity:1"
       d="M 417.75,121.9199 C 413.92269,119.6907 416.66354,111 421.19388,111 c 2.28008,0 6.80612,3.89027 6.80612,5.85007 0,4.88187 -5.71743,7.70981 -10.25,5.06983 z"
       id="path1920" />
    <path
       style="fill:#550000;stroke:#000000;stroke-opacity:1;fill-opacity:0.98380488"
       d="m 610.66813,189.42246 c 0.80243,-2.0911 -1.86636,-4.66736 -3.99059,-3.85222 -1.67179,0.64153 -2.27766,3.4963 -1.01087,4.76309 1.24622,1.24622 4.39367,0.673 5.00146,-0.91087 z"
       id="path1918" />
    <path
       style="fill:none;stroke:#000000;stroke-opacity:1"
       d="M 603.57143,192.42857 C 599.96869,188.82583 603.01297,182 608.22251,182 c 2.52196,0 5.77749,3.57532 5.77749,6.34501 0,4.82143 -6.96384,7.54829 -10.42857,4.08356 z"
       id="path1916" />
    <path
       style="fill:#550000;stroke:#000000;stroke-opacity:1;fill-opacity:0.98380488"
       d="m 414.66417,196.43278 c 0.83346,-2.17196 -1.28244,-4.21451 -2.79695,-2.7 C 410.58718,195.01282 411.38017,198 413,198 c 0.58452,0 1.3334,-0.70525 1.66417,-1.56722 z"
       id="path1914" />
    <path
       style="fill:none;stroke:#000000;stroke-opacity:1"
       d="m 409.65499,199.17126 c -3.20419,-3.54058 -1.13112,-9.04831 3.44002,-9.13946 4.28807,-0.0855 6.68919,7.94296 2.97073,9.93302 -2.79603,1.49639 -4.53296,1.28138 -6.41075,-0.79356 z"
       id="path1912" />
    <path
       style="fill:#550000;stroke:#000000;stroke-opacity:1;fill-opacity:0.98380488"
       d="m 534,202 c 0,-0.55 -0.47656,-1 -1.05902,-1 -0.58246,0 -0.7809,0.45 -0.44098,1 0.33992,0.55 0.81648,1 1.05902,1 0.24254,0 0.44098,-0.45 0.44098,-1 z"
       id="path1910" />
    <path
       style="fill:none;stroke:#000000;stroke-opacity:1"
       d="m 530,204 c -1.49591,-2.79513 0.3736,-6 3.5,-6 1.40618,0 2.88051,0.84248 3.5,2 1.49591,2.79513 -0.3736,6 -3.5,6 -1.40618,0 -2.88051,-0.84248 -3.5,-2 z"
       id="path1908" />
    <path
       style="fill:#550000;stroke:#000000;stroke-opacity:1;stroke-width:1;stroke-dasharray:none;fill-opacity:0.98380488"
       d="m 442.08785,198.17404 c -2.84162,-5.62922 -4.68032,-7.9149 -5.6151,-6.98012 -0.21681,0.2168 1.43182,3.44318 3.66361,7.16972 2.2318,3.72654 4.26858,6.56475 4.5262,6.30713 0.25762,-0.25761 -0.901,-3.18114 -2.57471,-6.49673 z"
       id="path1906" />
    <path
       style="fill:none;stroke:#000000;stroke-opacity:1;stroke-width:1;stroke-dasharray:none"
       d="m 441.81974,206.25 c -2.53613,-2.97822 -7.59321,-10.96092 -8.24524,-13.01527 -1.60234,-5.04853 3.35425,-7.12386 7.12856,-2.98473 1.12843,1.2375 3.43376,4.91028 5.12294,8.16173 2.33768,4.4997 2.83627,6.35081 2.08744,7.75 -1.24297,2.32252 -4.15518,2.3647 -6.0937,0.0883 z"
       id="path1904" />
    <path
       style="fill:#550000;stroke:#000000;stroke-opacity:1;fill-opacity:0.98380488"
       d="M 477.85078,215.90217 C 480.49979,214.97872 482.27219,213 480.45034,213 479.52546,213 474,216.02015 474,216.52568 c 0,0.66374 0.29538,0.61591 3.85078,-0.62351 z"
       id="path1902" />
    <path
       style="fill:none;stroke:#000000;stroke-opacity:1;stroke-width:1;stroke-dasharray:none"
       d="m 470.25,220.33744 c -1.80826,-0.72924 -1.53415,-3.77832 0.5,-5.56186 2.627,-2.30335 7.88931,-4.77558 10.16516,-4.77558 2.66868,0 4.48509,3.38361 3.15279,5.87303 -0.55133,1.03017 -2.98422,2.37206 -5.40643,2.98198 -2.42221,0.60992 -5.02445,1.3064 -5.78277,1.54774 -0.75831,0.24134 -1.94125,0.21195 -2.62875,-0.0653 z"
       id="path1900" />
    <path
       style="fill:#550000;stroke:#000000;stroke-opacity:1;fill-opacity:0.98380488"
       d="m 425.89872,225.53941 c 7.69717,-2.04857 8.78997,-3.62581 2.0247,-2.92224 -6.95763,0.72357 -12.09928,2.28927 -11.37361,3.46342 0.78383,1.26827 3.04119,1.1376 9.34891,-0.54118 z"
       id="path1898" />
    <path
       style="fill:none;stroke:#000000;stroke-opacity:1;stroke-width:1;stroke-dasharray:none"
       d="m 414.58239,228.6839 c -2.6704,-1.95264 -1.56341,-4.94873 2.57621,-6.97259 4.54225,-2.22071 19.05155,-2.87743 20.99313,-0.9502 2.0195,2.00458 -1.64376,4.76086 -9.50707,7.15321 -7.93782,2.41502 -11.54223,2.61228 -14.06227,0.76958 z"
       id="path1896" />
    <path
       style="fill:#550000;stroke:#000000;stroke-opacity:1;stroke-width:1;stroke-dasharray:none;fill-opacity:0.98380488"
       d="m 455.07692,226.07692 c 4.94476,-4.94475 2.93251,-12.10802 -3.38362,-12.04512 -7.93962,0.0791 -11.44843,9.8596 -4.82771,13.45679 3.7908,2.05963 4.9371,1.86256 8.21133,-1.41167 z"
       id="path1894" />
    <path
       style="fill:none;stroke:#000000;stroke-opacity:1"
       d="m 446.01391,230.24845 c -6.90523,-3.46332 -8.00787,-10.63175 -2.44271,-15.88037 2.92448,-2.75814 4.35714,-3.36808 7.91111,-3.36808 3.61853,0 4.77022,0.51141 6.9288,3.07673 4.51204,5.36226 2.57306,13.27931 -4.0183,16.40711 -3.99176,1.89421 -4.14121,1.89001 -8.3789,-0.23539 z"
       id="path1892" />
    <path
       style="fill:#550000;stroke:#000000;stroke-opacity:1;stroke-width:1;stroke-dasharray:none;fill-opacity:0.98380488"
       d="m 439.53889,245.74554 c 0.89364,-2.61495 1.41388,-5.31495 1.15609,-6 -0.63448,-1.68606 -5.78352,9.87599 -6.34807,14.25446 l -0.45129,3.5 2.00923,-3.5 c 1.10508,-1.925 2.7404,-5.63951 3.63404,-8.25446 z"
       id="path1890" />
    <path
       style="fill:none;stroke:#000000;stroke-opacity:1;stroke-width:1;stroke-dasharray:none"
       d="m 431.09308,259.61215 c -1.46481,-1.76499 -0.0957,-8.26888 3.43636,-16.32376 2.83837,-6.473 4.65718,-8.31385 7.48392,-7.57465 2.90048,0.7585 3.20327,3.34352 1.10573,9.44012 -4.5262,13.15563 -8.82143,18.31958 -12.02601,14.45829 z"
       id="path1888" />
    <path
       style="fill:#550000;stroke:#000000;stroke-opacity:1;fill-opacity:0.98380488"
       d="m 404.25,278.2671 c 2.3434,-2.11184 2.21692,-6.80018 -0.25,-9.2671 -2.61791,-2.61791 -6.79335,-2.54277 -9.68555,0.17431 -6.89173,6.47445 2.89863,15.43437 9.93555,9.09279 z"
       id="path1886" />
    <path
       style="fill:none;stroke:#000000;stroke-opacity:1"
       d="m 393.34543,282.06899 c -5.34316,-3.25804 -5.69133,-12.07855 -0.63379,-16.0568 6.42814,-5.05638 16.32349,-0.39321 16.25656,7.66089 -0.0343,4.13107 -1.08558,5.96577 -4.94071,8.62281 -3.23133,2.22711 -6.78117,2.15171 -10.68206,-0.2269 z"
       id="path1884" />
    <path
       style="fill:#550000;stroke:#000000;stroke-opacity:1;fill-opacity:0.98380488"
       d="m 460,363.5 c 0,-0.825 -0.42344,-1.5 -0.94098,-1.5 -1.26098,0 -2.1641,1.56159 -1.36517,2.36052 C 458.82004,365.4867 460,365.04641 460,363.5 Z"
       id="path1882" />
    <path
       style="fill:none;stroke:#000000;stroke-opacity:1"
       d="m 455.05274,366.56354 c -1.96529,-2.36802 -0.48547,-6.41683 2.63121,-7.19906 2.05531,-0.51586 3.07231,-0.14877 4.51137,1.6284 1.62817,2.01071 1.68602,2.55483 0.46785,4.40076 -1.71369,2.59682 -5.893,3.23928 -7.61043,1.1699 z"
       id="path1880" />
    <path
       style="fill:#550000;stroke:#000000;stroke-opacity:1;fill-opacity:0.98380488"
       d="M 613,370.94098 C 613,370.42344 612.55,370 612,370 c -0.55,0 -1,0.70156 -1,1.55902 0,0.85746 0.45,1.2809 1,0.94098 0.55,-0.33992 1,-1.04148 1,-1.55902 z"
       id="path1878" />
    <path
       style="fill:none;stroke:#000000;stroke-opacity:1"
       d="M 609.1532,376.7532 C 608.51894,376.11894 608,373.8755 608,371.76778 c 0,-3.05576 0.45589,-4.00437 2.25,-4.68184 2.90077,-1.09534 5.75,0.39864 5.75,3.01499 0,4.52692 -4.55072,8.94835 -6.8468,6.65227 z"
       id="path1876" />
    <path
       style="fill:#550000;stroke:#000000;stroke-opacity:1;fill-opacity:0.98380488"
       d="m 500.83691,382.60834 c 0.40674,-2.11204 -1.4806,-3.6823 -3.49623,-2.90883 -1.41845,0.54431 -1.82143,3.4864 -0.63944,4.66839 1.24053,1.24053 3.76473,0.16659 4.13567,-1.75956 z"
       id="path1874" />
    <path
       style="fill:none;stroke:#000000;stroke-opacity:1"
       d="m 494.57143,386.42857 c -2.51583,-2.51583 -1.98874,-7.10903 1.0438,-9.09603 2.34235,-1.53476 2.89016,-1.55996 5.25,-0.24151 1.67487,0.93576 2.75316,2.49466 2.95973,4.27895 0.61999,5.35535 -5.57188,8.74024 -9.25353,5.05859 z"
       id="path1872" />
    <path
       style="fill:#550000;stroke:#000000;stroke-opacity:1;fill-opacity:0.98380488"
       d="m 576.5,388 c 0.36706,-0.59391 -0.80328,-1 -2.88197,-1 -1.925,0 -3.77811,0.45 -4.11803,1 -0.36706,0.59391 0.80328,1 2.88197,1 1.925,0 3.77811,-0.45 4.11803,-1 z"
       id="path1870" />
    <path
       style="fill:none;stroke:#000000;stroke-opacity:1"
       d="m 567.2,390.8 c -3.12967,-3.12967 0.61014,-6.8 6.92874,-6.8 4.77886,0 6.87126,1.2865 6.87126,4.22475 0,3.29188 -11.02582,5.34943 -13.8,2.57525 z"
       id="path1868" />
    <path
       style="fill:#550000;stroke:#000000;stroke-opacity:1;fill-opacity:0.98380488"
       d="m 547.1805,390.07266 c 3.33158,-2.62063 6.23172,-9.29411 5.42896,-12.49255 C 551.78343,374.28892 547.26965,372 541.60542,372 c -6.16082,0 -9.41159,2.9195 -10.24181,9.19811 -0.56859,4.29997 -0.3626,4.95675 2.43066,7.75 3.69742,3.69743 9.49606,4.18456 13.38623,1.12455 z"
       id="path1866" />
    <path
       style="fill:none;stroke:#000000;stroke-opacity:1"
       d="m 535.31632,394.05662 c -2.50682,-1.13813 -4.81148,-3.11348 -5.75,-4.92838 -1.87699,-3.62969 -2.00986,-9.69342 -0.28701,-13.09822 C 534.81357,365.09287 556,367.59973 556,379.19171 c 0,5.67186 -5.71227,13.61882 -11.3151,15.74168 -3.73766,1.41616 -4.469,1.34771 -9.36858,-0.87677 z"
       id="path1864" />
    <path
       style="fill:#550000;stroke:#000000;stroke-opacity:1;fill-opacity:0.98380488"
       d="m 603.44025,400.02272 c 3.28909,-1.25051 6.05935,-6.89604 5.15398,-10.50332 -1.82439,-7.26894 -9.74684,-9.7862 -15.5175,-4.93051 -4.27954,3.60099 -4.34443,9.29726 -0.15365,13.48803 3.06232,3.06233 6.10154,3.62462 10.51717,1.9458 z"
       id="path1862" />
    <path
       style="fill:none;stroke:#000000;stroke-opacity:1"
       d="m 591.00874,400.24404 c -3.83707,-3.83708 -4.49181,-5.65516 -4.02421,-11.17455 0.73627,-8.69067 12.98139,-13.33483 19.87199,-7.53676 9.12867,7.68126 5.02455,21.09967 -6.80103,22.23596 -4.80995,0.46218 -5.21947,0.30263 -9.04675,-3.52465 z"
       id="path1860" />
    <path
       style="fill:#550000;stroke:#000000;stroke-opacity:1;fill-opacity:0.98380488"
       d="m 579.49879,403.86692 c 1.96261,-1.7232 3.33742,-3.36405 3.05512,-3.64634 -0.71823,-0.71824 -8.55391,4.58891 -8.55391,5.79361 0,1.7711 1.86586,1.04249 5.49879,-2.14727 z"
       id="path1858" />
    <path
       style="fill:none;stroke:#000000;stroke-opacity:1"
       d="m 571.15335,408.25 c -1.54916,-2.95636 0.44427,-5.873 6.30632,-9.22693 4.53684,-2.59571 5.89062,-2.97725 7.07532,-1.99403 2.49106,2.06739 1.64533,4.55003 -3.01265,8.8436 -4.81471,4.43805 -8.80925,5.3539 -10.36899,2.37736 z"
       id="path1856" />
    <path
       style="fill:#550000;stroke:#000000;stroke-opacity:1;fill-opacity:0.98380488"
       d="M 603.17668,424.35672 C 603.72158,421.58725 602.85508,413 602.03072,413 c -0.911,0 -2.00704,9.89814 -1.30005,11.74052 0.68299,1.77984 2.0629,1.56332 2.44601,-0.3838 z"
       id="path1854" />
    <path
       style="fill:none;stroke:#000000;stroke-opacity:1"
       d="m 598.87474,427.87474 c -1.90038,-1.90038 -2.05391,-2.82168 -1.45099,-8.7066 0.72724,-7.09823 1.78013,-9.16814 4.66351,-9.16814 2.70738,0 3.9369,3.12925 4.15776,10.5819 0.16319,5.50669 -0.12581,6.85776 -1.71552,8.02018 -2.53763,1.85557 -3.15071,1.77671 -5.65476,-0.72734 z"
       id="path1852" />
    <path
       style="fill:#550000;stroke:#000000;stroke-opacity:1;fill-opacity:0.98380488"
       d="m 597.5,464 c 0,-1.83273 -0.60174,-2.58545 -2.25447,-2.82014 -1.35228,-0.19202 -2.49559,0.3082 -2.85699,1.25 -0.99567,2.59467 0.39988,4.73919 2.85699,4.39028 C 596.89826,466.58545 597.5,465.83273 597.5,464 Z"
       id="path1850" />
    <path
       style="fill:none;stroke:#000000;stroke-opacity:1"
       d="m 590.75,468.9199 c -2.05526,-1.19708 -2.43108,-7.83882 -0.55,-9.7199 1.71162,-1.71162 7.37339,-1.48375 9.22857,0.37143 2.12179,2.12179 1.98626,6.74318 -0.25731,8.77358 -2.05043,1.85561 -5.78471,2.11054 -8.42126,0.57489 z"
       id="path1848" />
    <path
       style="fill:#550000;stroke:#000000;stroke-opacity:1;fill-opacity:0.98380488"
       d="M 623.66414,486.56722 C 623.3334,485.70525 622.58452,485 622,485 c -1.7193,0 -2.41535,3.12526 -0.90408,4.05928 1.77453,1.09672 3.35638,-0.43822 2.56825,-2.49206 z"
       id="path1846" />
    <path
       style="fill:none;stroke:#000000;stroke-opacity:1"
       d="m 618.5714,491.42857 c -1.85966,-1.85966 -2.07045,-6.52955 -0.37143,-8.22857 0.66,-0.66 2.37,-1.2 3.8,-1.2 3.4783,0 5,1.72403 5,5.66482 0,4.8276 -5.09124,7.10108 -8.42857,3.76375 z"
       id="path1844" />
    <path
       style="fill:#550000;stroke:#000000;stroke-opacity:1;fill-opacity:0.98380488"
       d="m 618.5,524.93036 c 0,-1.49507 -0.66234,-2.53052 -1.75302,-2.74057 -2.24877,-0.43307 -3.35115,2.3773 -1.70877,4.35625 1.73347,2.0887 3.46179,1.28207 3.46179,-1.61568 z"
       id="path1842" />
    <path
       style="fill:none;stroke:#000000;stroke-opacity:1"
       d="m 614.22826,529.76981 c -4.36896,-2.10557 -4.08279,-9.26625 0.41544,-10.39523 7.01234,-1.75999 11.20114,7.55256 4.72449,10.50352 -1.35426,0.61705 -2.55362,1.09144 -2.66524,1.05422 -0.11162,-0.0372 -1.22523,-0.56036 -2.47469,-1.16251 z"
       id="path1840" />
    <path
       style="fill:#bcd35f;stroke:#000000;stroke-opacity:1"
       d="m 316,104.44098 c 0,-0.85746 -0.45734,-1.27636 -1.01631,-0.9309 -0.55897,0.34546 -0.75742,1.04702 -0.44098,1.55902 0.85723,1.38704 1.45729,1.12841 1.45729,-0.62812 z"
       id="path1836" />
    <path
       style="fill:none;stroke:#000000;stroke-opacity:1"
       d="M 312.57143,107.42857 C 311.70714,106.56429 311,105.24643 311,104.5 c 0,-1.69252 2.72727,-4.5 4.37143,-4.5 1.88275,0 3.62857,2.16509 3.62857,4.5 0,4.11414 -3.60206,5.75508 -6.42857,2.92857 z"
       id="path1834" />
    <path
       style="fill:#bcd35f;stroke:#000000;stroke-opacity:1"
       d="m 369.6771,131.39908 c 0.63132,-1.6452 -1.45445,-3.65472 -2.87935,-2.77408 -0.43876,0.27117 -0.79775,1.36648 -0.79775,2.43402 0,2.33979 2.81001,2.59966 3.6771,0.34006 z"
       id="path1832" />
    <path
       style="fill:none;stroke:#000000;stroke-opacity:1"
       d="m 364.2,134.8 c -2.11916,-2.11916 -1.42392,-6.60718 1.3,-8.39196 2.31587,-1.51741 2.68413,-1.51741 5,0 1.67323,1.09635 2.5,2.55642 2.5,4.41501 0,3.47356 -1.64517,5.17695 -5,5.17695 -1.43,0 -3.14,-0.54 -3.8,-1.2 z"
       id="path1830" />
    <path
       style="fill:#bcd35f;stroke:#000000;stroke-opacity:1"
       d="m 322.0551,170.4715 c 3.29949,-1.70623 6.93683,-6.93173 9.02914,-12.9715 0.76213,-2.2 2.17827,-5.35 3.14699,-7 4.88449,-8.31971 -1.35508,-19.19164 -9.79821,-17.07255 -3.40286,0.85407 -11.95001,8.89222 -15.01317,14.11911 -2.75656,4.70371 -3.9825,11.64072 -2.99111,16.92526 1.19368,6.36288 9.07349,9.38831 15.62636,5.99968 z"
       id="path1828" />
    <path
       style="fill:none;stroke:#000000;stroke-opacity:1"
       d="m 310.5,173.59749 c -5.71064,-2.52074 -7,-4.99861 -7,-13.45248 0,-10.2418 3.1433,-16.79528 11.57185,-24.12621 9.42175,-8.19479 16.86032,-8.09812 21.97215,0.28553 1.07169,1.75762 1.95021,4.8779 1.95226,6.93396 0.004,4.36745 -6.07943,19.76965 -9.71564,24.59685 -4.99685,6.63349 -11.96412,8.77122 -18.78062,5.76235 z"
       id="path1826" />
    <path
       style="fill:#bcd35f;stroke:#000000;stroke-opacity:1"
       d="m 350.5,205 c 0,-1.56144 -0.646,-2.59702 -1.75302,-2.81021 -1.97949,-0.38122 -3.26679,2.01323 -2.35699,4.38412 0.95373,2.4854 4.11001,1.27672 4.11001,-1.57391 z"
       id="path1824" />
    <path
       style="fill:none;stroke:#000000;stroke-opacity:1"
       d="M 344.74524,209.25 C 340.9935,205.05404 343.2112,199 348.5,199 c 3.15551,0 5.5,2.52201 5.5,5.91644 0,5.18623 -5.9861,7.98923 -9.25476,4.33356 z"
       id="path1822" />
    <path
       style="fill:#bcd35f;stroke:#000000;stroke-opacity:1"
       d="m 274.90085,205.92264 c 2.0932,-3.44199 1.80439,-5.97443 -0.96741,-8.48288 C 269.64355,193.55746 263,196.69196 263,202.59828 c 0,6.53026 8.50622,8.90638 11.90085,3.32436 z"
       id="path1820" />
    <path
       style="fill:none;stroke:#000000;stroke-opacity:1"
       d="m 262.92308,209.07692 c -7.17372,-7.17372 -0.32574,-18.68357 9.50168,-15.97008 4.4974,1.24179 6.57524,4.25235 6.57524,9.52677 0,8.49117 -10.01518,12.50506 -16.07692,6.44331 z"
       id="path1818" />
    <path
       style="fill:none;stroke:#000000;stroke-opacity:1"
       d="M 301.81184,210.73852 C 302.04039,209.55174 301.50738,209 300.13234,209 c -2.29335,0 -3.56338,1.49355 -2.59812,3.05537 0.97327,1.57479 3.89389,0.67569 4.27762,-1.31685 z"
       id="path1816" />
    <path
       style="fill:none;stroke:#000000;stroke-opacity:1"
       d="m 295.53647,214.04029 c -2.31277,-2.55557 -1.32319,-6.72471 1.95015,-8.21615 5.32226,-2.42498 10.01203,4.60464 5.68464,8.52087 -2.44297,2.21086 -5.46748,2.09014 -7.63479,-0.30472 z"
       id="path1814" />
    <path
       style="fill:#bcd35f;stroke:#000000;stroke-opacity:1"
       d="M 254.89481,245.62675 C 256.40133,243.8115 255.24993,241 253,241 c -0.98231,0 -2.06693,0.73204 -2.41026,1.62675 C 249.97782,244.22137 251.50923,247 253,247 c 0.41531,0 1.26797,-0.61796 1.89481,-1.37325 z"
       id="path1812" />
    <path
       style="fill:none;stroke:#000000;stroke-opacity:1"
       d="m 249,248 c -2.40261,-2.40261 -2.53847,-4.78621 -0.4433,-7.77749 3.10165,-4.42823 10.4433,-1.61622 10.4433,4 0,2.38689 -3.52118,5.77749 -6,5.77749 -1.1,0 -2.9,-0.9 -4,-2 z"
       id="path1810" />
    <path
       style="fill:#bcd35f;stroke:#000000;stroke-opacity:1"
       d="m 334.79966,269.58198 c 3.64876,-1.91605 10.12387,-9.15471 11.81975,-13.21354 4.54723,-10.88303 -1.77584,-21.4521 -11.01062,-18.40435 -9.19645,3.03511 -18.23378,22.77423 -13.32699,29.1085 3.03624,3.91953 7.95486,4.90554 12.51786,2.50939 z"
       id="path1808" />
    <path
       style="fill:none;stroke:#000000;stroke-opacity:1"
       d="m 323.22507,271.9958 c -1.8012,-1.09819 -3.7137,-3.15081 -4.25,-4.56136 -3.56507,-9.37684 3.81297,-26.73296 13.32066,-31.33555 5.38573,-2.60719 8.30459,-2.63998 12.40572,-0.13937 5.84765,3.56552 7.78084,11.16163 5.20324,20.44522 -1.17656,4.23757 -9.52506,13.83046 -14.0914,16.19181 -3.81699,1.97384 -8.75176,1.73834 -12.58822,-0.60075 z"
       id="path1806" />
    <path
       style="fill:#bcd35f;stroke:#000000;stroke-opacity:1"
       d="M 354,319.44098 C 354,318.64844 353.325,318 352.5,318 c -1.50623,0 -2.05568,2.11099 -0.86052,3.30615 0.93324,0.93324 2.36052,-0.19452 2.36052,-1.86517 z"
       id="path1804" />
    <path
       style="fill:none;stroke:#000000;stroke-opacity:1"
       d="m 349.2,323.8 c -0.66,-0.66 -1.2,-2.37 -1.2,-3.8 0,-3.1445 1.66995,-5 4.5,-5 2.72165,0 4.5,1.82916 4.5,4.62857 0,4.26535 -5.02091,6.95052 -7.8,4.17143 z"
       id="path1802" />
    <path
       style="fill:#bcd35f;stroke:#000000;stroke-opacity:1"
       d="m 191,326.96862 c 0,-2.3586 -2.64455,-3.72407 -4.2,-2.16862 -1.55545,1.55545 -0.18998,4.2 2.16862,4.2 1.37517,0 2.03138,-0.65621 2.03138,-2.03138 z"
       id="path1800" />
    <path
       style="fill:none;stroke:#000000;stroke-opacity:1"
       d="m 187,332.30602 c -3.89657,-1.3926 -5.26907,-6.89409 -2.42857,-9.73459 1.85966,-1.85966 6.52955,-2.07045 8.22857,-0.37143 2.05834,2.05834 1.45554,7.50761 -1.02251,9.2433 -2.37495,1.66348 -2.48255,1.68291 -4.77749,0.86272 z"
       id="path1798" />
    <path
       style="fill:none;stroke:#000000;stroke-opacity:1"
       d="m 170.40924,352.62409 c -0.84721,-2.20781 0.27991,-3.33494 1.80743,-1.80742 0.9019,0.9019 0.90574,1.46092 0.0161,2.35055 -0.88962,0.88962 -1.3233,0.76045 -1.82354,-0.54313 z"
       id="path1796" />
    <path
       style="fill:#bcd35f;stroke:#000000;stroke-opacity:1"
       d="m 161.81242,370.73549 c 0.39799,-2.06658 -2.48881,-3.4591 -4.01242,-1.93549 -1.52361,1.52361 -0.13109,4.41041 1.93549,4.01242 0.95785,-0.18446 1.89247,-1.11908 2.07693,-2.07693 z"
       id="path1794" />
    <path
       style="fill:none;stroke:#000000;stroke-opacity:1"
       d="M 155.57143,374.42857 C 152.20703,371.06417 154.68002,365 159.41644,365 c 2.73583,0 5.58356,2.89373 5.58356,5.67375 0,4.43441 -6.25715,6.92624 -9.42857,3.75482 z"
       id="path1792" />
    <path
       style="fill:#bcd35f;stroke:#000000;stroke-opacity:1"
       d="m 353.29966,392.35081 c 8.21375,-4.23267 21.45708,-19.53492 23.88713,-27.60081 2.13173,-7.07569 -2.58149,-15.79923 -9.33789,-17.28319 -6.21232,-1.36445 -9.82671,0.2852 -17.55279,8.01128 -8.16101,8.16101 -12.13379,15.55025 -13.03031,24.236 -1.20301,11.65499 6.36477,17.61936 16.03386,12.63672 z"
       id="path1790" />
    <path
       style="fill:none;stroke:#000000;stroke-opacity:1"
       d="m 339.61488,394.9117 c -5.88511,-4.62923 -7.20312,-12.98229 -3.66918,-23.25388 4.02802,-11.70765 15.25116,-24.55665 23.35548,-26.73892 15.3906,-4.14426 26.5772,10.81288 19.01879,25.42924 -4.44378,8.59332 -16.60285,21.26215 -24.02031,25.02733 -4.5726,2.32111 -11.41928,2.10488 -14.68478,-0.46377 z"
       id="path1788" />
    <path
       style="fill:#bcd35f;stroke:#000000;stroke-opacity:1"
       d="m 399.81369,398.74698 c 0.18377,-0.96417 -0.40903,-2.0382 -1.31732,-2.38675 -1.98527,-0.76181 -5.03079,1.96605 -4.02033,3.60099 1.05237,1.70278 4.9507,0.81596 5.33765,-1.21424 z"
       id="path1786" />
    <path
       style="fill:none;stroke:#000000;stroke-opacity:1"
       d="m 392.58037,402.0888 c -3.72112,-4.11179 0.91678,-10.18477 6.67445,-8.73969 3.28129,0.82355 4.9397,4.62369 3.38564,7.758 -1.61828,3.26383 -7.47736,3.83558 -10.06009,0.98169 z"
       id="path1784" />
    <path
       style="fill:#bcd35f;stroke:#000000;stroke-opacity:1"
       d="m 452.5,402 c 0.33992,-0.55 0.14148,-1 -0.44098,-1 -0.58246,0 -1.05902,0.45 -1.05902,1 0,0.55 0.19844,1 0.44098,1 0.24254,0 0.7191,-0.45 1.05902,-1 z"
       id="path1782" />
    <path
       style="fill:none;stroke:#000000;stroke-opacity:1"
       d="m 449.2,404.8 c -3.55202,-3.55202 0.57026,-9.05007 4.64539,-6.19574 2.55234,1.78773 2.7405,3.66699 0.58318,5.82431 -1.87901,1.87902 -3.59881,2.00119 -5.22857,0.37143 z"
       id="path1780" />
    <path
       style="fill:#bcd35f;stroke:#000000;stroke-opacity:1"
       d="m 131.8041,402.8692 c 0.34785,-2.98981 -2.22494,-4.59475 -4.43085,-2.76401 -1.70145,1.41208 -1.75337,3.11469 -0.14406,4.724 1.91577,1.91577 4.23982,0.9201 4.57491,-1.95999 z"
       id="path1778" />
    <path
       style="fill:none;stroke:#000000;stroke-opacity:1"
       d="m 125,407 c -1.1,-1.1 -2,-3.125 -2,-4.5 0,-2.95296 3.21373,-6.5 5.88922,-6.5 3.02391,0 6.36078,3.32784 6.36078,6.34356 0,5.82317 -6.24586,8.66058 -10.25,4.65644 z"
       id="path1776" />
    <path
       style="fill:none;stroke:#000000;stroke-opacity:1"
       d="m 260.0685,410.43329 c 13.624,-3.92982 30.18876,-15.0551 41.23218,-27.69251 13.76587,-15.75282 21.78058,-31.32284 24.48009,-47.55698 1.4225,-8.5546 1.42515,-10.36844 0.0278,-19.06883 -2.17108,-13.51801 -7.0691,-23.55711 -15.7222,-32.22454 -7.23176,-7.24375 -13.5057,-10.90783 -22.80212,-13.31677 -12.11439,-3.13916 -29.23983,-0.98827 -40.37185,5.07053 -18.83222,10.24978 -35.45237,38.26895 -42.45979,71.58107 -1.81266,8.61708 -1.85804,23.67054 -0.0913,30.27474 4.01459,15.00652 15.39034,27.32461 30.0546,32.54424 6.44189,2.29294 18.42219,2.47464 25.65255,0.38905 z"
       id="path1774" />
    <path
       style="fill:#bcd35f;stroke:#000000;stroke-opacity:1"
       d="m 233.76195,413.11361 c -15.25308,-5.02348 -27.33598,-17.81845 -32.15043,-34.04511 -6.27262,-21.14135 4.9819,-63.48063 23.35605,-87.86497 12.51924,-16.61429 29.3433,-25.16394 49.53243,-25.17139 28.03397,-0.0103 49.30133,19.16137 54.17206,48.83406 1.53828,9.37126 1.55076,11.10046 0.14748,20.43566 -2.88723,19.20692 -12.6188,36.64846 -30.25657,54.22774 -17.11757,17.0608 -31.86025,24.54119 -49.56297,25.1481 -7.29814,0.2502 -10.82993,-0.11231 -15.23805,-1.56409 z"
       id="path1772" />
    <path
       style="fill:#bcd35f;stroke:#000000;stroke-opacity:1"
       d="m 448,424.05902 c 0,-2.69269 -1.89174,-3.59586 -3.71429,-1.77331 C 442.46316,424.10826 443.36633,426 446.05902,426 447.31366,426 448,425.31366 448,424.05902 Z"
       id="path1770" />
    <path
       style="fill:none;stroke:#000000;stroke-opacity:1"
       d="m 443.27992,428.91322 c -2.68146,-0.99843 -3.86445,-4.9525 -2.33609,-7.80827 1.30331,-2.43524 5.71271,-3.81137 7.86412,-2.4543 5.71792,3.60678 0.85291,12.63847 -5.52803,10.26257 z"
       id="path1768" />
    <path
       style="fill:#bcd35f;stroke:#000000;stroke-opacity:1"
       d="m 230.80287,434.63294 c -0.36573,-2.55098 -3.56523,-3.4158 -4.41777,-1.19411 -0.79084,2.06091 1.3372,4.60497 3.24089,3.87445 0.81922,-0.31436 1.34456,-1.51082 1.17688,-2.68034 z"
       id="path1766" />
    <path
       style="fill:none;stroke:#000000;stroke-opacity:1"
       d="m 225,439 c -3.80602,-3.80602 -1.63813,-10 3.5,-10 5.29242,0 7.61619,7.40436 3.27749,10.4433 C 228.84018,441.50067 227.40692,441.40692 225,439 Z"
       id="path1764" />
    <path
       style="fill:#bcd35f;stroke:#000000;stroke-opacity:1"
       d="m 178.47292,436.46485 c 6.17538,-1.79523 7.81337,-3.35569 9.93511,-9.46485 2.00472,-5.77226 1.99482,-8.97984 -0.0367,-11.88021 -1.52415,-2.17602 -2.05353,-2.27981 -8.25,-1.61737 -8.02052,0.85744 -11.58329,2.56718 -14.16183,6.79613 -3.46884,5.68908 -1.72301,14.0416 3.46068,16.5569 2.82159,1.36913 3.03046,1.36012 9.05272,-0.3906 z"
       id="path1762" />
    <path
       style="fill:none;stroke:#000000;stroke-opacity:1"
       d="m 167.29855,439.04048 c -8.78734,-5.35795 -8.35918,-18.49832 0.82433,-25.29887 1.54007,-1.14045 5.72816,-2.38966 10.14474,-3.02593 6.6514,-0.95823 7.83303,-0.87975 10.21065,0.67812 1.47883,0.96897 3.34808,3.33969 4.15389,5.26826 1.34106,3.20961 1.28546,4.02856 -0.6566,9.67222 -2.69112,7.82039 -5.93809,11.2222 -12.54456,13.14275 -6.78152,1.97145 -8.27112,1.91785 -12.13245,-0.43655 z"
       id="path1760" />
    <path
       style="fill:#bcd35f;stroke:#000000;stroke-opacity:1"
       d="m 124.78212,473.44695 c 7.80576,-3.26065 12.38282,-10.16212 12.35108,-18.62343 -0.0407,-10.86345 -8.64777,-19.25497 -19.6452,-19.15333 -5.26775,0.0487 -11.67962,2.67016 -14.69986,6.01 C 100.12394,444.62631 98,450.53476 98,455 c 0,14.07392 14.06283,23.7601 26.78212,18.44695 z"
       id="path1758" />
    <path
       style="fill:none;stroke:#000000;stroke-opacity:1"
       d="M 108.5,476.11357 C 99.983324,472.19055 95.0608,464.55891 95.021962,455.21788 94.967671,442.16017 104.4291,432.66382 117.5,432.65689 c 24.03673,-0.0128 31.78691,32.04811 10.33162,42.73973 -6.30322,3.14102 -13.4904,3.40757 -19.33162,0.71695 z"
       id="path1756" />
    <path
       style="fill:#bcd35f;stroke:#000000;stroke-opacity:1"
       d="M 112.81955,521.75 C 112.6438,520.5125 111.825,519.5 111,519.5 c -0.825,0 -1.6438,1.0125 -1.81955,2.25 -0.24594,1.73169 0.17321,2.25 1.81955,2.25 1.64634,0 2.06549,-0.51831 1.81955,-2.25 z"
       id="path1754" />
    <path
       style="fill:none;stroke:#000000;stroke-opacity:1"
       d="m 108.18538,527.31618 c -0.72305,-0.28926 -1.72441,-1.60374 -2.22525,-2.92105 -2.13554,-5.61689 3.84392,-10.69241 8.08016,-6.85866 4.76621,4.31335 0.0737,12.15149 -5.85491,9.77971 z"
       id="path1752" />
    <path
       style="fill:#bcd35f;stroke:#000000;stroke-opacity:1"
       d="m 542.67661,595.42631 c 10.71294,-8.5242 11.20172,-25.17987 1.00175,-34.13556 -4.16117,-3.65356 -8.43561,-4.7244 -16.26618,-4.07502 -6.32846,0.5248 -9.54508,2.53971 -13.91218,8.71465 -2.71656,3.84113 -3,4.98147 -3,12.06962 0,7.10603 0.28042,8.22671 3.04159,12.15537 4.73901,6.74279 9.45767,8.98497 18.13502,8.61728 6.24816,-0.26476 7.67125,-0.69768 11,-3.34634 z"
       id="path1750" />
    <path
       style="fill:none;stroke:#000000;stroke-opacity:1"
       d="m 521,600.66878 c -5.12955,-2.39813 -8.15732,-5.08068 -10.79098,-9.56064 C 507.83756,587.07419 507.5,585.44086 507.5,578 c 0,-7.51252 0.3259,-9.05443 2.80528,-13.27239 5.0071,-8.51818 14.69405,-12.61006 25.17136,-10.63266 10.55288,1.99165 17.35551,9.89057 18.25323,21.19485 1.30173,16.39151 -7.88588,26.81618 -23.46897,26.62898 -3.7185,-0.0447 -7.8859,-0.60717 -9.2609,-1.25 z"
       id="path1748" />
    <path
       style="fill:none;stroke:#000000;stroke-opacity:1"
       d="m 345.98469,639.75 c -0.008,-1.2375 -0.45842,-2.925 -1,-3.75 -1.37072,-2.08805 -2.84465,0.28175 -2.21708,3.56465 0.58681,3.06973 3.23775,3.22246 3.21708,0.18535 z"
       id="path1744" />
    <path
       style="fill:#550000;stroke:#000000;stroke-opacity:1;fill-opacity:0.98380488"
       d="m 183,510.05902 c 0,-2.69269 -1.89174,-3.59586 -3.71429,-1.77331 C 177.46316,510.10826 178.36633,512 181.05902,512 182.31366,512 183,511.31366 183,510.05902 Z"
       id="path1742" />
    <path
       style="fill:none;stroke:#000000;stroke-opacity:1"
       d="m 176.4726,512.96972 c -3.51049,-3.87904 0.63895,-9.91149 5.90799,-8.58905 1.61831,0.40617 3.08507,1.71392 3.68135,3.28224 2.22027,5.83976 -5.3271,10.01653 -9.58934,5.30681 z"
       id="path1740" />
    <path
       style="fill:#550000;stroke:#000000;stroke-opacity:1;fill-opacity:0.98380488"
       d="m 411.09308,517.02623 c 3.93078,-3.73926 4.14346,-4.22611 3.60385,-8.25 -1.49225,-11.12784 -16.06623,-13.31663 -20.3531,-3.05671 -1.3399,3.20683 -1.33234,4.02203 0.0713,7.69742 3.15594,8.26371 10.18587,9.78507 16.67795,3.60929 z"
       id="path1738" />
    <path
       style="fill:none;stroke:#000000;stroke-opacity:1"
       d="m 397.4572,522.13697 c -6.35787,-3.87716 -8.92767,-11.96879 -5.75373,-18.11704 5.29478,-10.25653 19.30289,-10.72158 24.3917,-0.80977 3.5633,6.94048 1.61212,14.05571 -4.99887,18.22905 -4.79072,3.02425 -9.43448,3.26182 -13.6391,0.69776 z"
       id="path1736" />
    <path
       style="fill:#550000;stroke:#000000;stroke-opacity:1;fill-opacity:0.98380488"
       d="M 433,531.51356 C 433,529.52357 428.12076,526 425.36514,526 c -3.36962,0 -2.94997,1.12252 1.77818,4.75644 4.11218,3.1605 5.85668,3.38602 5.85668,0.75712 z"
       id="path1734" />
    <path
       style="fill:none;stroke:#000000;stroke-opacity:1"
       d="m 425,533.29149 c -3.61157,-2.85255 -4.5,-4.16997 -4.5,-6.67288 0,-2.8726 0.29108,-3.14281 3.68986,-3.42539 4.69829,-0.39062 9.34237,2.00153 11.32356,5.83274 1.69271,3.27334 0.86104,6.23263 -2.06743,7.35639 -2.65834,1.0201 -3.74431,0.62269 -8.44599,-3.09086 z"
       id="path1732" />
    <path
       style="fill:#550000;stroke:#000000;stroke-opacity:1;fill-opacity:0.98380488"
       d="m 382.89641,530.4652 c 3.57177,-4.06801 4.09552,-6.06643 1.18114,-4.5067 -2.11634,1.13263 -6.07755,5.81001 -6.07755,7.17636 0,1.78408 1.89143,0.75282 4.89641,-2.66966 z"
       id="path1730" />
    <path
       style="fill:none;stroke:#000000;stroke-opacity:1"
       d="m 376.2,535.8 c -2.38207,-2.38207 -1.23011,-5.49816 3.75716,-10.16316 5.2943,-4.9522 7.04275,-5.5468 9.0827,-3.08881 1.05321,1.26904 1.00711,2.13026 -0.25577,4.77854 -3.77673,7.91989 -9.37086,11.68666 -12.58409,8.47343 z"
       id="path1728" />
    <path
       style="fill:#550000;stroke:#000000;stroke-opacity:1;fill-opacity:0.98380488"
       d="m 398.654,541.41895 c 1.42935,-6.09262 1.64846,-10.15034 0.47891,-8.86895 -1.1853,1.29865 -4.13291,10.36451 -4.13291,12.71147 0,3.67906 2.50821,1.04145 3.654,-3.84252 z"
       id="path1726" />
    <path
       style="fill:none;stroke:#000000;stroke-opacity:1"
       d="m 393.22186,549.82186 c -1.65024,-1.65024 -1.53693,-5.06774 0.39648,-11.95836 1.89739,-6.76224 4.6129,-9.85309 7.1902,-8.18402 1.32312,0.85687 1.64274,2.38621 1.46774,7.02294 -0.2259,5.98551 -2.53975,13.29758 -4.20791,13.29758 -0.49764,0 -1.51676,0.23483 -2.26473,0.52186 -0.74796,0.28702 -1.90976,-0.028 -2.58178,-0.7 z"
       id="path1724" />
    <path
       style="fill:#550000;stroke:#000000;stroke-opacity:1;fill-opacity:0.98380488"
       d="m 362.55385,571.91287 c 1.03052,-1.66742 -1.28721,-3.57951 -2.66672,-2.2 C 358.73321,570.86679 359.45541,573 361,573 c 0.48508,0 1.18431,-0.48921 1.55385,-1.08713 z"
       id="path1722" />
    <path
       style="fill:none;stroke:#000000;stroke-opacity:1"
       d="M 357.57143,574.42857 C 354.34211,571.19926 356.78786,566 361.53624,566 363.92438,566 366,568.49369 366,571.36283 366,573.43407 363.2333,576 361,576 c -1.02143,0 -2.56429,-0.70714 -3.42857,-1.57143 z"
       id="path1720" />
    <path
       style="fill:#550000;stroke:#000000;stroke-opacity:1;fill-opacity:0.98380488"
       d="M 430.17126,576.34501 C 433.96845,572.9086 431.02898,565 425.95455,565 423.7882,565 419,569.14496 419,571.02029 c 0,1.5412 2.07132,5.32741 3.3997,6.2144 1.91583,1.27923 5.87588,0.82588 7.77156,-0.88968 z"
       id="path1718" />
    <path
       style="fill:none;stroke:#000000;stroke-opacity:1"
       d="M 420.74998,579.91989 C 418.56617,578.64794 416,573.80178 416,570.94966 c 0,-1.18231 1.58694,-3.7366 3.52654,-5.6762 3.12911,-3.12911 3.94615,-3.45973 7.25,-2.93376 4.93117,0.78505 8.23354,4.60117 8.19166,9.46606 -0.0175,2.03183 -0.58,4.40824 -1.25,5.2809 -2.79073,3.63482 -9.19118,5.03316 -12.96822,2.83323 z"
       id="path1716" />
    <path
       style="fill:#550000;stroke:#000000;stroke-opacity:1;fill-opacity:0.98380488"
       d="m 469.92971,577.69098 c 0.0408,-1.63221 -0.34865,-2.5501 -0.92971,-2.19098 -0.55,0.33992 -0.96837,2.50398 -0.92971,4.80902 0.0546,3.25815 0.26157,3.74582 0.92971,2.19098 0.47269,-1.1 0.89106,-3.26406 0.92971,-4.80902 z"
       id="path1714" />
    <path
       style="fill:none;stroke:#000000;stroke-opacity:1"
       d="m 466.2,586.8 c -0.66,-0.66 -1.2,-3.7549 -1.2,-6.87756 0,-6.24688 1.37058,-8.29135 5.19496,-7.7492 2.10024,0.29773 2.30314,0.83042 2.28367,5.99538 -0.0156,4.1267 -0.53373,6.23478 -1.90498,7.75 -2.17964,2.40848 -2.7347,2.52033 -4.37365,0.88138 z"
       id="path1712" />
    <path
       style="fill:#550000;stroke:#000000;stroke-opacity:1;fill-opacity:0.98380488"
       d="m 377,594.406 c 0,-2.23947 -2.2988,-1.64351 -6.03777,1.56528 l -3.46223,2.97129 4.75,-1.56529 c 2.67222,-0.88058 4.75,-2.18031 4.75,-2.97128 z"
       id="path1710" />
    <path
       style="fill:none;stroke:#000000;stroke-opacity:1"
       d="m 364.61057,600.42756 c -0.87313,-2.27535 0.73357,-4.70105 5.13341,-7.75014 4.39028,-3.04246 7.40395,-3.38663 9.68459,-1.10599 3.08677,3.08677 1.21945,5.92894 -5.80069,8.82898 -4.91055,2.02857 -8.24544,2.0386 -9.01731,0.0272 z"
       id="path1708" />
    <path
       style="fill:#550000;stroke:#000000;stroke-opacity:1;fill-opacity:0.98380488"
       d="m 470.5,604.4863 c 0,-1.29852 -0.77909,-2.09695 -2.25,-2.30585 -1.65701,-0.23533 -2.25,0.18196 -2.25,1.58333 0,1.04659 0.31556,2.21844 0.70124,2.60412 1.32654,1.32654 3.79876,0.10201 3.79876,-1.8816 z"
       id="path1706" />
    <path
       style="fill:none;stroke:#000000;stroke-opacity:1"
       d="M 463.5567,607.77749 C 462.70052,606.55512 462,605.0408 462,604.41235 462,602.3389 466.10899,598 468.07258,598 c 2.65116,0 5.92742,3.50707 5.92742,6.34501 0,5.21737 -7.47277,7.6735 -10.4433,3.43248 z"
       id="path1704" />
    <path
       style="fill:#550000;stroke:#000000;stroke-opacity:1;fill-opacity:0.98380488"
       d="m 453.80902,611.80902 c 1.94979,-1.20504 3.04592,-2.35737 2.43582,-2.56074 -1.46155,-0.48718 -7.24484,2.52817 -7.24484,3.7774 0,1.43627 0.87444,1.21504 4.80902,-1.21666 z"
       id="path1702" />
    <path
       style="fill:none;stroke:#000000;stroke-opacity:1"
       d="m 447.25,616.33772 c -0.6875,-0.27741 -1.25,-1.80931 -1.25,-3.40421 0,-2.48158 0.73307,-3.27129 5.08264,-5.47539 6.20114,-3.14235 9.41736,-2.97467 9.41736,0.491 0,1.71308 -1.30064,3.44116 -4.32774,5.75 -4.13382,3.15297 -6.16146,3.75261 -8.92226,2.6386 z"
       id="path1700" />
    <path
       style="fill:#550000;stroke:#000000;stroke-opacity:1;fill-opacity:0.98380488"
       d="m 465.22919,627.82919 c -1.57401,-1.57401 -1.59258,-7.0658 -0.0292,-8.62919 2.406,-2.406 4.67765,-1.36913 5.3966,2.46324 1.02019,5.4381 -2.29121,9.24215 -5.36741,6.16595 z"
       id="path1698" />
    <path
       style="fill:#550000;stroke:#000000;stroke-opacity:1;fill-opacity:0.98380488"
       d="m 344.46295,625.02549 c 5.66472,-3.89743 11.25904,-10.48324 12.07998,-14.22093 1.14003,-5.19055 -0.32434,-9.7005 -3.84719,-11.84852 -4.3998,-2.68273 -8.52598,-2.44782 -14.82752,0.84414 -9.1451,4.77746 -16.32023,16.30755 -13.97015,22.44936 2.72638,7.12523 12.35445,8.42488 20.56488,2.77595 z"
       id="path1696" />
    <path
       style="fill:none;stroke:#000000;stroke-opacity:1"
       d="m 326.77836,629.79668 c -7.20525,-4.17678 -8.29656,-11.03922 -3.20439,-20.1501 8.00878,-14.32927 24.98428,-20.05627 33.17603,-11.19255 2.63969,2.85622 3.25,4.34147 3.25,7.90916 0,6.19634 -2.0596,10.41069 -7.98228,16.33338 -8.97887,8.97886 -17.74454,11.44474 -25.23936,7.10011 z"
       id="path1694" />
    <path
       style="fill:none;stroke:#000000;stroke-opacity:1"
       d="m 320.5,442.4863 c 0,-2.26226 -0.45848,-2.9863 -1.89101,-2.9863 -2.77323,0 -4.33172,2.92424 -2.64296,4.95907 2.10432,2.53555 4.53397,1.4784 4.53397,-1.97277 z"
       id="path1692" />
    <path
       style="fill:none;stroke:#000000;stroke-opacity:1"
       d="m 384,491 c -2.61694,-2.047 -5,-2.59645 -5,-1.15281 0,1.01356 3.88923,2.99895 6,3.06289 0.96794,0.0293 0.61323,-0.64819 -1,-1.91008 z"
       id="path1690" />
    <path
       style="fill:#932265;stroke:#000000;stroke-opacity:1;fill-opacity:1"
       d="m 247.00613,621.52254 c 33.64839,-3.97909 55.85904,-14.85052 77.88207,-38.1209 19.60315,-20.71343 33.26114,-42.56749 40.82071,-65.31697 3.0328,-9.12679 3.52945,-11.96202 3.60583,-20.58467 0.0744,-8.39874 -0.28118,-10.83486 -2.22064,-15.21376 -4.1367,-9.33988 -13.58569,-16.41339 -28.68044,-21.47015 -9.8099,-3.28634 -34.30233,-3.32484 -48.41366,-0.0761 -26.45615,6.09077 -53.01522,20.54081 -67.56466,36.76002 -36.12033,40.26568 -49.55818,77.02102 -37.36363,102.19736 6.12342,12.64215 18.65608,20.03441 37.73848,22.25967 10.04335,1.17119 10.72069,1.15902 24.19594,-0.43449 z"
       id="path1688" />
    <path
       style="fill:none;stroke:#000000;stroke-opacity:1"
       d="M 215,630.50656 C 185.20764,624.52285 169.46461,604.66374 171.39433,575.5 c 1.3713,-20.72432 9.97963,-40.67004 28.05322,-65 17.52899,-23.59686 31.48303,-35.49695 55.05245,-46.94909 16.92753,-8.22492 38.72351,-14.42976 51.36047,-14.6212 6.17747,-0.0936 8.34677,-0.98649 7.11822,-2.92995 -3.82657,-6.05332 4.61681,-13.41918 9.36632,-8.17102 1.81496,2.0055 2.24426,7.68903 0.65499,8.67126 -2.15014,1.32886 -0.81971,2.5 2.84004,2.5 11.5587,0 33.16026,8.90506 41.2673,17.0121 4.67545,4.67545 8.9864,11.91221 10.26865,17.2379 0.48734,2.0241 1.27739,2.75 2.99302,2.75 3.69268,0 10.81896,5.66468 10.44376,8.30174 -0.33958,2.38667 -2.52443,2.71887 -8.56277,1.30197 L 379,494.84109 v 4.51408 c 0,31.27037 -35.16545,86.82795 -70.03374,110.64566 -24.2911,16.59269 -67.02151,25.91751 -93.96626,20.50573 z"
       id="path1686" />
    <path
       style="fill:#550000;stroke:#000000;stroke-opacity:1;fill-opacity:0.98380488"
       d="M 486.81955,639.23978 C 487.05966,637.5568 486.6393,637 485.12857,637 c -2.39351,0 -3.52958,1.51261 -2.72021,3.62179 0.8554,2.22914 4.03825,1.23197 4.41119,-1.38201 z"
       id="path1684" />
    <path
       style="fill:none;stroke:#000000;stroke-opacity:1"
       d="m 480.65499,643.17126 c -4.54823,-5.02574 1.354,-12.36107 6.97999,-8.67478 2.62099,1.71735 3.30321,7.16533 1.16502,9.30352 -1.79324,1.79324 -6.26558,1.44801 -8.14501,-0.62874 z"
       id="path1682" />
    <path
       style="fill:#550000;stroke:#000000;stroke-opacity:1;fill-opacity:0.98380488"
       d="M 313.99373,639.84996 C 317.08245,635.5861 317.65911,634 316.12058,634 c -1.56393,0 -9.21462,8.03882 -8.59888,9.03511 1.22698,1.98529 3.55738,0.83841 6.47203,-3.18515 z"
       id="path1680" />
    <path
       style="fill:none;stroke:#000000;stroke-opacity:1"
       d="m 307.43597,646.72929 c -4.5152,-2.46839 -4.44736,-4.60271 0.31403,-9.87928 3.78545,-4.19504 9.53168,-7.41199 11.29402,-6.32281 1.84528,1.14045 0.92692,5.84299 -2.04578,10.47554 -3.47131,5.40958 -6.65475,7.31604 -9.56227,5.72655 z"
       id="path1678" />
    <path
       style="fill:#932265;stroke:#000000;stroke-opacity:1;fill-opacity:1"
       d="m 401.5,669.57035 c 19.67297,-2.62753 50.29553,-9.03255 52.17615,-10.91317 0.81676,-0.81676 -1.56843,-7.36609 -6.06381,-16.65022 -3.14225,-6.48955 -5.88157,-10.28568 -11.61234,-16.09232 -10.36129,-10.49845 -16.22325,-13.24193 -29.35163,-13.73694 -8.68537,-0.32749 -10.70084,-0.0617 -17.02514,2.24486 -14.75119,5.38006 -27.66202,18.13944 -41.02278,40.54157 -9.07374,15.21404 -9.27953,15.70168 -6.92388,16.40658 3.45106,1.03268 48.83872,-0.33324 59.82343,-1.80036 z"
       id="path1674" />
  </g>
</svg>
